<svg version="1.2" xmlns="http://www.w3.org/2000/svg" viewBox="0 0 180 180" width="180" height="180">
	<title>harmony logo (Biscuit de Sol (Dark) by tsukki9696</title>
	<defs>
		<linearGradient id="grad" x2="1" gradientUnits="userSpaceOnUse" gradientTransform="matrix(156.6,-156.174,155.921,156.347,11.4,166.133)">
			<stop offset="0" stop-color="#4a5a8d"/>
			<stop offset="1" stop-color="#9f569a"/>
		</linearGradient>
	</defs>
	<style>
		.s0 { fill: url(#grad) }
	</style>
	<path id="Shape" class="s0" d="m141.2 0c-5.1 0-10.2 1-14.9 2.9-4.7 2-9 4.8-12.6 8.4-3.6 3.6-6.4 7.9-8.4 12.6-1.9 4.7-3 9.7-3 14.8v42.9c-4 0.3-8.1 0.5-12.3 0.5-4.2 0-8.3 0.1-12.3 0.4v-43.8c-0.2-10.2-4.4-19.9-11.6-27.1-7.3-7.1-17.1-11.1-27.3-11.1-10.2 0-19.9 4-27.2 11.1-7.3 7.2-11.4 16.9-11.6 27.1v102.6c0.2 10.2 4.3 19.9 11.6 27.1 7.3 7.1 17 11.1 27.2 11.1 10.2 0 20-4 27.3-11.1 7.2-7.2 11.4-16.9 11.6-27.1v-42.9c4-0.3 8.1-0.5 12.3-0.5 4.2 0 8.3-0.1 12.3-0.4v43.8c0.2 10.2 4.4 19.9 11.6 27.1 7.3 7.1 17.1 11.1 27.3 11.1 10.2 0 19.9-4 27.2-11.1 7.3-7.2 11.4-16.9 11.6-27.1v-102.6c0-5.1-1-10.1-3-14.8-1.9-4.7-4.8-9-8.4-12.6-3.6-3.6-7.9-6.4-12.6-8.4-4.7-1.9-9.7-2.9-14.8-2.9zm-102.4 15.9c3 0 6 0.5 8.8 1.7 2.8 1.1 5.3 2.8 7.4 4.9 2.1 2.2 3.8 4.7 5 7.5 1.1 2.7 1.7 5.7 1.8 8.7v45.5q-4.3 0.6-8.5 1.5-4.2 0.9-8.4 2-4.1 1.2-8.1 2.6-4.1 1.5-8.1 3.2-1.7 0.7-3.3 1.6-1.7 0.9-3.3 1.8-1.6 1-3.1 2-1.6 1.1-3 2.2v-62.4c0-3 0.6-6 1.7-8.7 1.2-2.8 2.8-5.3 5-7.4 2.1-2.2 4.6-3.8 7.4-5 2.8-1.1 5.7-1.7 8.7-1.7zm23 125.4c0 6.1-2.5 11.9-6.8 16.2-4.3 4.3-10.1 6.7-16.2 6.7-6 0-11.9-2.4-16.2-6.7-4.3-4.3-6.7-10.1-6.7-16.2v-10.3c0-9.1 7.2-17.7 19.3-23.1q3.2-1.3 6.4-2.5 3.3-1.2 6.6-2.2 3.4-0.9 6.7-1.7 3.4-0.8 6.8-1.3zm79.5 22.8c-3 0-6-0.6-8.8-1.7-2.8-1.2-5.3-2.8-7.4-5-2.1-2.1-3.8-4.6-5-7.4-1.1-2.8-1.7-5.7-1.8-8.7v-45.5q4.3-0.6 8.5-1.5 4.2-0.9 8.4-2.1 4.1-1.1 8.1-2.6 4.1-1.4 8-3.1 1.8-0.8 3.4-1.6 1.7-0.9 3.3-1.8 1.6-1 3.1-2 1.6-1.1 3-2.2v62.4c0 3-0.6 5.9-1.7 8.7-1.2 2.8-2.8 5.3-5 7.4-2.1 2.1-4.6 3.8-7.4 5-2.8 1.1-5.7 1.7-8.7 1.7zm3.6-92.1q-3.2 1.4-6.4 2.5-3.3 1.2-6.6 2.2-3.4 1-6.7 1.7-3.4 0.8-6.8 1.3l-0.1-41c0-6.1 2.5-11.9 6.8-16.2 4.3-4.3 10.1-6.7 16.2-6.7 6 0 11.9 2.4 16.2 6.7 4.3 4.3 6.7 10.1 6.7 16.2v10.3c0 9-7.2 17.6-19.3 23z"/>
</svg>